# xmcd
#
# Track frame offsets: 
#        150
#        13365
#        28591
#        43911
#        58892
#        74027
#        88879
#        100209
#        113516
#        129808
#        151536
#        182623
#        198986
#        232822
#        254025
#        267442
#        285366
#        305839
#        326007
#        348158
#
# Disc length: 4853 seconds
#
# Revision: 2
# Processed by: cddbd v1.5.2PL0 Copyright (c) Steve Scherf et al.
# Submitted via: ExactAudioCopy v0.90b4
#
DISCID=2112f314
DTITLE=Paul Kelly - Songs From The South (Paul Kelly's Greatest Hits 1
DTITLE=985 - 2019) [CD1]
DYEAR=2019
DGENRE=Folk/Rock
TTITLE0=From St. Kilda To Kings Cross
TTITLE1=Before Too Long
TTITLE2=Leaps And Bounds
TTITLE3=Darling It Hurts
TTITLE4=Look So Fine Feel So Low
TTITLE5=To Her Door
TTITLE6=Dumb Things
TTITLE7=Careless
TTITLE8=Sweet Guy
TTITLE9=Everything's Turning To White
TTITLE10=From Little Things Big Things Grow
TTITLE11=Winter Coat
TTITLE12=Bradman
TTITLE13=When I First Met Your Ma
TTITLE14=Love Never Runs On Time
TTITLE15=Song From The Sixteenth Floor
TTITLE16=Deeper Water
TTITLE17=How To Make Gravy
TTITLE18=Nothing On My Mind
TTITLE19=Love Letter
EXTD=
EXTT0=
EXTT1=
EXTT2=
EXTT3=
EXTT4=
EXTT5=
EXTT6=
EXTT7=
EXTT8=
EXTT9=
EXTT10=
EXTT11=
EXTT12=
EXTT13=
EXTT14=
EXTT15=
EXTT16=
EXTT17=
EXTT18=
EXTT19=
PLAYORDER=
